<svg width="152" height="152" viewBox="0 0 152 152" fill="none" xmlns="http://www.w3.org/2000/svg">
<rect width="152" height="152" rx="20" fill="#FCFAFE" style="fill:#FCFAFE;fill:color(display-p3 0.9882 0.9804 0.9961);fill-opacity:1;"/>
<path d="M59.1941 101.344C62.172 101.344 64.123 98.7534 65.0472 93.5728H67.9737V111.94H25V107.702L31.0071 102.05C35.7306 97.3405 40.0947 92.1599 44.0994 86.5084C51.5954 76.1472 55.3434 66.6691 55.3434 58.074C55.3434 52.5402 54.3166 48.5959 52.2629 46.2411C50.2092 43.8862 47.6421 42.7088 44.5615 42.7088C39.0165 42.7088 34.9605 44.887 32.3933 49.2434C34.7551 49.4789 36.3467 50.8918 37.1682 53.4821C37.3736 54.1885 37.4762 55.2482 37.4762 56.6611C37.4762 57.9562 36.8601 59.2514 35.6279 60.5465C34.4984 61.724 33.0608 62.3127 31.3151 62.3127C29.5695 62.3127 28.0806 61.6651 26.8483 60.3699C25.7188 58.957 25.154 57.1321 25.154 54.895C25.154 50.7741 27.2591 47.0652 31.4692 43.7685C35.6793 40.5895 40.7108 39 46.5639 39C52.5196 39 57.4485 40.6484 61.3505 43.9451C65.2526 47.1241 67.2036 51.8926 67.2036 58.2506C67.2036 65.6683 63.8663 73.4391 57.1918 81.5632C53.4951 86.2729 49.7471 90.2761 45.9478 93.5728L37.0142 101.344H59.1941Z" fill="#1A1D1C" style="fill:#1A1D1C;fill:color(display-p3 0.1020 0.1137 0.1098);fill-opacity:1;"/>
<path d="M115.602 77.6778C111.392 83.2116 105.95 86.0374 99.275 86.1551C97.1186 86.1551 94.8082 85.743 92.3438 84.9189C89.982 83.9769 87.8256 82.6229 85.8746 80.8568C81.7672 76.7359 79.7135 71.0843 79.7135 63.9022C79.7135 56.72 81.9212 50.7741 86.3367 46.0644C90.8548 41.3548 96.5025 39 103.28 39C110.057 39 115.705 42.1201 120.223 48.3604C124.741 54.4829 127 62.9014 127 73.6158C127 84.2124 124.638 93.2196 119.915 100.637C114.883 108.526 108.106 112.647 99.5831 113C94.7569 113 90.9575 112.058 88.185 110.174C85.5152 108.29 84.0263 105.877 83.7182 102.933V102.227C83.7182 100.343 84.1803 98.7534 85.1045 97.4582C86.1313 96.1631 87.5176 95.5155 89.2632 95.5155C91.0089 95.5155 92.3951 96.1631 93.422 97.4582C94.5515 98.7534 95.1163 100.461 95.1163 102.58C95.1163 104.582 94.3461 106.112 92.8059 107.172C94.2434 108.702 96.3998 109.527 99.275 109.644C104.512 109.644 108.465 106.76 111.135 100.99C113.908 95.2212 115.397 87.4503 115.602 77.6778ZM96.6566 79.9737C98.0941 80.9157 99.9938 81.3866 102.356 81.3866C104.717 81.3866 107.079 80.5036 109.441 78.7375C111.905 76.9714 113.959 74.6166 115.602 71.673C115.294 58.0151 112.829 49.1257 108.209 45.0048C106.566 43.5919 104.769 42.8854 102.818 42.8854C98.9156 42.8854 95.8864 44.5927 93.73 48.0072C91.5736 51.3039 90.4954 55.778 90.4954 61.4296C90.4954 70.9666 92.5491 77.148 96.6566 79.9737Z" fill="#1A1D1C" style="fill:#1A1D1C;fill:color(display-p3 0.1020 0.1137 0.1098);fill-opacity:1;"/>
</svg>
