<svg width="16" height="16" viewBox="0 0 16 16" fill="none" xmlns="http://www.w3.org/2000/svg">
<path d="M14.6667 11.6667L12 9.00003V10.1167L10.6667 8.78337V4.00003H5.88335L4.55002 2.6667H10.6667C11.0333 2.6667 11.3472 2.79725 11.6083 3.05837C11.8695 3.31948 12 3.63337 12 4.00003V7.00003L14.6667 4.33337V11.6667ZM13.7 15.5667L0.43335 2.30003L1.36668 1.3667L14.6334 14.6334L13.7 15.5667ZM2.66668 2.6667L4.00002 4.00003H2.66668V12H10.6667V10.6667L12 12C12 12.3667 11.8695 12.6806 11.6083 12.9417C11.3472 13.2028 11.0333 13.3334 10.6667 13.3334H2.66668C2.30002 13.3334 1.98613 13.2028 1.72502 12.9417C1.46391 12.6806 1.33335 12.3667 1.33335 12V4.00003C1.33335 3.63337 1.46391 3.31948 1.72502 3.05837C1.98613 2.79725 2.30002 2.6667 2.66668 2.6667Z" fill="white" style="fill:white;fill-opacity:1;"/>
</svg>
