<svg width="24" height="24" viewBox="0 0 24 24" fill="none" xmlns="http://www.w3.org/2000/svg">
<path d="M8 23C7.45 23 6.97917 22.8042 6.5875 22.4125C6.19583 22.0208 6 21.55 6 21V3C6 2.45 6.19583 1.97917 6.5875 1.5875C6.97917 1.19583 7.45 1 8 1H16C16.55 1 17.0208 1.19583 17.4125 1.5875C17.8042 1.97917 18 2.45 18 3V21C18 21.55 17.8042 22.0208 17.4125 22.4125C17.0208 22.8042 16.55 23 16 23H8ZM8 21H16V3H8V21ZM12 10C12.8333 10 13.5417 9.70833 14.125 9.125C14.7083 8.54167 15 7.83333 15 7C15 6.16667 14.7083 5.45833 14.125 4.875C13.5417 4.29167 12.8333 4 12 4C11.1667 4 10.4583 4.29167 9.875 4.875C9.29167 5.45833 9 6.16667 9 7C9 7.83333 9.29167 8.54167 9.875 9.125C10.4583 9.70833 11.1667 10 12 10ZM12 8C11.7167 8 11.4792 7.90417 11.2875 7.7125C11.0958 7.52083 11 7.28333 11 7C11 6.71667 11.0958 6.47917 11.2875 6.2875C11.4792 6.09583 11.7167 6 12 6C12.2833 6 12.5208 6.09583 12.7125 6.2875C12.9042 6.47917 13 6.71667 13 7C13 7.28333 12.9042 7.52083 12.7125 7.7125C12.5208 7.90417 12.2833 8 12 8ZM10 14C10.2833 14 10.5208 13.9042 10.7125 13.7125C10.9042 13.5208 11 13.2833 11 13C11 12.7167 10.9042 12.4792 10.7125 12.2875C10.5208 12.0958 10.2833 12 10 12C9.71667 12 9.47917 12.0958 9.2875 12.2875C9.09583 12.4792 9 12.7167 9 13C9 13.2833 9.09583 13.5208 9.2875 13.7125C9.47917 13.9042 9.71667 14 10 14ZM14 14C14.2833 14 14.5208 13.9042 14.7125 13.7125C14.9042 13.5208 15 13.2833 15 13C15 12.7167 14.9042 12.4792 14.7125 12.2875C14.5208 12.0958 14.2833 12 14 12C13.7167 12 13.4792 12.0958 13.2875 12.2875C13.0958 12.4792 13 12.7167 13 13C13 13.2833 13.0958 13.5208 13.2875 13.7125C13.4792 13.9042 13.7167 14 14 14ZM10 17C10.2833 17 10.5208 16.9042 10.7125 16.7125C10.9042 16.5208 11 16.2833 11 16C11 15.7167 10.9042 15.4792 10.7125 15.2875C10.5208 15.0958 10.2833 15 10 15C9.71667 15 9.47917 15.0958 9.2875 15.2875C9.09583 15.4792 9 15.7167 9 16C9 16.2833 9.09583 16.5208 9.2875 16.7125C9.47917 16.9042 9.71667 17 10 17ZM14 17C14.2833 17 14.5208 16.9042 14.7125 16.7125C14.9042 16.5208 15 16.2833 15 16C15 15.7167 14.9042 15.4792 14.7125 15.2875C14.5208 15.0958 14.2833 15 14 15C13.7167 15 13.4792 15.0958 13.2875 15.2875C13.0958 15.4792 13 15.7167 13 16C13 16.2833 13.0958 16.5208 13.2875 16.7125C13.4792 16.9042 13.7167 17 14 17ZM10 20C10.2833 20 10.5208 19.9042 10.7125 19.7125C10.9042 19.5208 11 19.2833 11 19C11 18.7167 10.9042 18.4792 10.7125 18.2875C10.5208 18.0958 10.2833 18 10 18C9.71667 18 9.47917 18.0958 9.2875 18.2875C9.09583 18.4792 9 18.7167 9 19C9 19.2833 9.09583 19.5208 9.2875 19.7125C9.47917 19.9042 9.71667 20 10 20ZM14 20C14.2833 20 14.5208 19.9042 14.7125 19.7125C14.9042 19.5208 15 19.2833 15 19C15 18.7167 14.9042 18.4792 14.7125 18.2875C14.5208 18.0958 14.2833 18 14 18C13.7167 18 13.4792 18.0958 13.2875 18.2875C13.0958 18.4792 13 18.7167 13 19C13 19.2833 13.0958 19.5208 13.2875 19.7125C13.4792 19.9042 13.7167 20 14 20Z" fill="#FCFAFE" style="fill:#FCFAFE;fill:color(display-p3 0.9882 0.9804 0.9961);fill-opacity:1;"/>
</svg>
